<svg xmlns="http://www.w3.org/2000/svg" xmlns:xlink="http://www.w3.org/1999/xlink" width="1418pt" height="1151pt" viewBox="0 0 1417.64 1150.6"><g id="graph0" class="graph" transform="scale(1 1) rotate(0) translate(4 1146.6)"><title>G</title><polygon fill="#fff" stroke="transparent" points="-4 4 -4 -1146.6 1413.64 -1146.6 1413.64 4 -4 4"/><text x="704.82" y="-1127.4" font-family="Times-Roman" font-size="14" text-anchor="middle">Kubernetes Test Infrastructure (Last updated 2020-03-04)</text><g id="clust1" class="cluster"><title>cluster_Prow</title><polygon fill="none" stroke="#00f" points="266.36 -740.22 266.36 -1111.6 980.36 -1111.6 980.36 -740.22 266.36 -740.22"/><text x="623.36" y="-1096.4" font-family="Times-Roman" font-size="14" text-anchor="middle">Prow</text></g><g id="clust2" class="cluster"><title>cluster_legend</title><polygon fill="none" stroke="#000" points="667.36 -245.52 667.36 -359.48 1317.36 -359.48 1317.36 -245.52 667.36 -245.52"/><text x="992.36" y="-344.28" font-family="Times-Roman" font-size="14" text-anchor="middle">Legend</text></g><g id="node1" class="node"><title>legend_ext</title><polygon fill="gray" stroke="#000" points="1309.36 -328 1235.36 -328 1235.36 -254 1309.36 -254 1309.36 -328"/><text x="1272.36" y="-294.8" font-family="Times-Roman" font-size="14" text-anchor="middle">External</text><text x="1272.36" y="-279.8" font-family="Times-Roman" font-size="14" text-anchor="middle">Service</text></g><g id="node2" class="node"><title>GCS</title><polygon fill="gray" stroke="#000" points="703.36 -667.22 657.36 -667.22 657.36 -621.22 703.36 -621.22 703.36 -667.22"/><text x="680.36" y="-640.52" font-family="Times-Roman" font-size="14" text-anchor="middle">GCS</text></g><g id="node3" class="node"><title>PubSub</title><polygon fill="gray" stroke="#000" points="1204.36 -579.72 1134.36 -579.72 1134.36 -509.72 1204.36 -509.72 1204.36 -579.72"/><text x="1169.36" y="-541.02" font-family="Times-Roman" font-size="14" text-anchor="middle">PubSub</text></g><g id="edge15" class="edge"><title>GCS-&gt;PubSub</title><path fill="none" stroke="#000" d="M703.62,-641.27C763.96,-635.87 930.13,-618.77 1064.36,-584.22 1084.44,-579.05 1106.04,-571.49 1124.4,-564.44"/><polygon fill="#000" stroke="#000" points="1125.92 -567.6 1133.96 -560.7 1123.37 -561.08 1125.92 -567.6"/></g><g id="node7" class="node"><title>Spyglass</title><polygon fill="#add8e6" stroke="#000" points="619.79 -550.28 556.36 -562.72 492.93 -550.28 492.99 -530.15 619.73 -530.15 619.79 -550.28"/><text x="556.36" y="-541.02" font-family="Times-Roman" font-size="14" text-anchor="middle">Spyglass</text></g><g id="edge22" class="edge"><title>GCS-&gt;Spyglass</title><path fill="none" stroke="#000" d="M657.33,-625.11C635.84,-608.21 603.85,-583.06 581.66,-565.61"/><polygon fill="#000" stroke="#000" points="583.7 -562.76 573.68 -559.33 579.37 -568.26 583.7 -562.76"/></g><g id="node9" class="node"><title>Testgrid (closed)</title><g id="a_node9"><a xlink:href="https://testgrid.k8s.io" xlink:title="Testgrid (closed)"><polygon fill="#add8e6" stroke="#000" points="1084.84 -432.91 979.36 -445.35 873.88 -432.91 873.97 -412.78 1084.75 -412.78 1084.84 -432.91"/><text x="979.36" y="-423.65" font-family="Times-Roman" font-size="14" text-anchor="middle">Testgrid (closed)</text></a></g></g><g id="edge21" class="edge"><title>GCS-&gt;Testgrid (closed)</title><path fill="none" stroke="#000" d="M703.82,-626.36C758.01,-587.41 891.75,-491.31 950.68,-448.96"/><polygon fill="#000" stroke="#000" points="952.74 -451.79 958.82 -443.11 948.65 -446.1 952.74 -451.79"/></g><g id="node10" class="node"><title>Gubernator</title><g id="a_node10"><a xlink:href="https://gubernator.k8s.io" xlink:title="Gubernator"><polygon fill="#add8e6" stroke="#000" points="1055.5 -550.28 979.36 -562.72 903.22 -550.28 903.29 -530.15 1055.43 -530.15 1055.5 -550.28"/><text x="979.36" y="-541.02" font-family="Times-Roman" font-size="14" text-anchor="middle">Gubernator</text></a></g></g><g id="edge4" class="edge"><title>GCS-&gt;Gubernator</title><path fill="none" stroke="#000" d="M713.21,-634.93C742.55,-627.34 786.6,-615.44 824.36,-603.22 868.19,-589.03 917.99,-570.03 949.04,-557.83"/><polygon fill="#000" stroke="#000" points="712.3 -631.56 703.48 -637.44 714.04 -638.34 712.3 -631.56"/></g><g id="node20" class="node"><title>Triage</title><g id="a_node20"><a xlink:href="https://go.k8s.io/triage" xlink:title="Triage"><polygon fill="#1e90ff" stroke="#000" points="836.86 -209 777.86 -209 777.86 -150 836.86 -150 836.86 -209"/><text x="807.36" y="-175.8" font-family="Times-Roman" font-size="14" text-anchor="middle">Triage</text></a></g></g><g id="edge20" class="edge"><title>GCS-&gt;Triage</title><path fill="none" stroke="#000" d="M663.97,-611.88C655.69,-593.19 647.36,-568.7 647.36,-545.72 647.36,-545.72 647.36,-545.72 647.36,-290 647.36,-268.99 649.1,-260.95 663.36,-245.52 694.17,-212.18 745.33,-194.77 777.65,-186.63"/><polygon fill="#000" stroke="#000" points="660.87 -613.5 668.26 -621.08 667.21 -610.54 660.87 -613.5"/></g><g id="node31" class="node"><title>Kettle</title><ellipse cx="1282.36" cy="-427.35" fill="none" stroke="#000" rx="127.06" ry="26.74"/><text x="1282.36" y="-431.15" font-family="Times-Roman" font-size="14" text-anchor="middle">Kettle</text><text x="1282.36" y="-416.15" font-family="Times-Roman" font-size="14" text-anchor="middle">get GCS results into BQ</text></g><g id="edge16" class="edge"><title>PubSub-&gt;Kettle</title><path fill="none" stroke="#000" d="M1202.96,-509.41C1217.94,-494.12 1235.51,-476.18 1250.31,-461.07"/><polygon fill="#000" stroke="#000" points="1252.83 -463.5 1257.33 -453.9 1247.83 -458.6 1252.83 -463.5"/><text x="1253.86" y="-476.02" font-family="Times-Roman" font-size="14" text-anchor="middle">read</text></g><g id="node4" class="node"><title>GitHub\nthrough\nghproxy</title><polygon fill="gray" stroke="#000" points="1062.36 -948.17 988.36 -948.17 988.36 -874.17 1062.36 -874.17 1062.36 -948.17"/><text x="1025.36" y="-922.47" font-family="Times-Roman" font-size="14" text-anchor="middle">GitHub</text><text x="1025.36" y="-907.47" font-family="Times-Roman" font-size="14" text-anchor="middle">through</text><text x="1025.36" y="-892.47" font-family="Times-Roman" font-size="14" text-anchor="middle">ghproxy</text></g><g id="edge2" class="edge"><title>GitHub\nthrough\nghproxy-&gt;Gubernator</title><path fill="none" stroke="#000" d="M1019.52,-863.89C1009.8,-786.87 990.59,-634.71 982.78,-572.84"/><polygon fill="#000" stroke="#000" points="1016.06 -864.41 1020.78 -873.89 1023 -863.53 1016.06 -864.41"/><polygon fill="#000" stroke="#000" points="986.23 -572.19 981.5 -562.7 979.28 -573.06 986.23 -572.19"/><text x="1037.36" y="-704.02" font-family="Times-Roman" font-size="14" text-anchor="middle">PR events</text></g><g id="node25" class="node"><title>Hook</title><ellipse cx="854.36" cy="-1047.38" fill="none" stroke="#000" rx="118.17" ry="26.74"/><text x="854.36" y="-1051.18" font-family="Times-Roman" font-size="14" text-anchor="middle">Hook</text><text x="854.36" y="-1036.18" font-family="Times-Roman" font-size="14" text-anchor="middle">handle GitHub events</text></g><g id="edge3" class="edge"><title>GitHub\nthrough\nghproxy-&gt;Hook</title><path fill="none" stroke="#000" d="M1016.47,-948.24C1010.8,-964.72 1001.91,-983.36 988.36,-996.17 975.98,-1007.87 960.63,-1016.9 944.78,-1023.86"/><polygon fill="#000" stroke="#000" points="943.32 -1020.67 935.4 -1027.72 945.98 -1027.15 943.32 -1020.67"/><text x="1030.86" y="-977.47" font-family="Times-Roman" font-size="14" text-anchor="middle">events</text></g><g id="node5" class="node"><title>BigQuery</title><g id="a_node5"><a xlink:href="https://bigquery.cloud.google.com/table/k8s-gubernator:build.week" xlink:title="BigQuery"><polygon fill="gray" stroke="#000" points="1409.36 -332 1327.36 -332 1327.36 -250 1409.36 -250 1409.36 -332"/><text x="1368.36" y="-287.3" font-family="Times-Roman" font-size="14" text-anchor="middle">BigQuery</text></a></g></g><g id="node19" class="node"><title>Metrics</title><polygon fill="#1e90ff" stroke="#000" points="1241.86 -213 1174.86 -213 1174.86 -146 1241.86 -146 1241.86 -213"/><text x="1208.36" y="-175.8" font-family="Times-Roman" font-size="14" text-anchor="middle">Metrics</text></g><g id="edge19" class="edge"><title>BigQuery-&gt;Metrics</title><path fill="none" stroke="#000" d="M1327.31,-250.15C1325.33,-248.55 1323.34,-247 1321.36,-245.52 1299.36,-229.14 1272.87,-213.7 1251.06,-201.98"/><polygon fill="#000" stroke="#000" points="1252.51 -198.78 1242.03 -197.19 1249.23 -204.97 1252.51 -198.78"/></g><g id="edge18" class="edge"><title>BigQuery-&gt;Triage</title><path fill="none" stroke="#000" d="M1329.11,-249.83C1326.59,-248.23 1324,-246.77 1321.36,-245.52 1278.68,-225.34 960.31,-194.53 847.14,-184.1"/><polygon fill="#000" stroke="#000" points="847.43 -180.61 837.15 -183.18 846.79 -187.58 847.43 -180.61"/></g><g id="node6" class="node"><title>legend_site</title><ellipse cx="1172.36" cy="-291" fill="none" stroke="#000" rx="45.01" ry="26.74"/><text x="1172.36" y="-294.8" font-family="Times-Roman" font-size="14" text-anchor="middle">Serves</text><text x="1172.36" y="-279.8" font-family="Times-Roman" font-size="14" text-anchor="middle">HTTP</text></g><g id="node16" class="node"><title>GKE</title><polygon fill="gray" stroke="#000" points="430.16 -419.89 430.16 -434.8 411.53 -445.35 385.19 -445.35 366.56 -434.8 366.56 -419.89 385.19 -409.35 411.53 -409.35 430.16 -419.89"/><polygon fill="none" stroke="#000" points="434.18 -417.56 434.18 -437.13 412.59 -449.35 384.13 -449.35 362.55 -437.13 362.55 -417.56 384.13 -405.35 412.59 -405.35 434.18 -417.56"/><text x="398.36" y="-423.65" font-family="Times-Roman" font-size="14" text-anchor="middle">GKE</text></g><g id="edge23" class="edge"><title>Spyglass-&gt;GKE</title><path fill="none" stroke="#000" d="M529.53,-524.12C501.71,-503.81 458.28,-472.1 429.09,-450.79"/><polygon fill="#000" stroke="#000" points="527.48 -526.96 537.62 -530.03 531.6 -521.31 527.48 -526.96"/><polygon fill="#000" stroke="#000" points="431.04 -447.87 420.9 -444.8 426.91 -453.53 431.04 -447.87"/></g><g id="node8" class="node"><title>Deck</title><g id="a_node8"><a xlink:href="https://prow.k8s.io" xlink:title="Deck\nfrontend"><polygon fill="#add8e6" stroke="#000" points="717.71 -1057.71 651.36 -1080.81 585.01 -1057.71 585.07 -1020.34 717.65 -1020.34 717.71 -1057.71"/><text x="651.36" y="-1051.18" font-family="Times-Roman" font-size="14" text-anchor="middle">Deck</text><text x="651.36" y="-1036.18" font-family="Times-Roman" font-size="14" text-anchor="middle">frontend</text></a></g></g><g id="node30" class="node"><title>ApiServer</title><polygon fill="none" stroke="#000" points="682.98 -904.57 668.2 -929.66 608.36 -940.82 548.52 -929.66 533.74 -904.57 575.15 -884.46 641.57 -884.46 682.98 -904.57"/><text x="608.36" y="-914.97" font-family="Times-Roman" font-size="14" text-anchor="middle">Kubernetes</text><text x="608.36" y="-899.97" font-family="Times-Roman" font-size="14" text-anchor="middle">API Server</text></g><g id="edge10" class="edge"><title>Deck-&gt;ApiServer</title><path fill="none" stroke="#000" d="M642.97,-1020.19C636.45,-999.85 627.34,-971.41 620.1,-948.82"/><polygon fill="#000" stroke="#000" points="623.41 -947.68 617.03 -939.22 616.75 -949.81 623.41 -947.68"/><text x="649.86" y="-977.47" font-family="Times-Roman" font-size="14" text-anchor="middle">read</text></g><g id="edge5" class="edge"><title>Gubernator-&gt;Testgrid (closed)</title><path fill="none" stroke="#000" d="M979.36,-519.76C979.36,-497.55 979.36,-465.06 979.36,-445.38"/><polygon fill="#000" stroke="#000" points="975.86 -520.03 979.36 -530.03 982.86 -520.03 975.86 -520.03"/></g><g id="node11" class="node"><title>Velodrome</title><polygon fill="#add8e6" stroke="#000" points="565.86 -23.56 494.36 -36 422.86 -23.56 422.93 -3.44 565.79 -3.44 565.86 -23.56"/><text x="494.36" y="-14.3" font-family="Times-Roman" font-size="14" text-anchor="middle">Velodrome</text></g><g id="node12" class="node"><title>Boskos</title><polygon fill="#add8e6" stroke="#000" points="364.8 -649.78 312.36 -662.22 259.92 -649.78 259.97 -629.65 364.75 -629.65 364.8 -649.78"/><text x="312.36" y="-640.52" font-family="Times-Roman" font-size="14" text-anchor="middle">Boskos</text></g><g id="node15" class="node"><title>GCE</title><polygon fill="gray" stroke="#000" points="68.6 -419.89 68.6 -434.8 49.71 -445.35 23.01 -445.35 4.12 -434.8 4.12 -419.89 23.01 -409.35 49.71 -409.35 68.6 -419.89"/><polygon fill="none" stroke="#000" points="72.58 -417.54 72.58 -437.15 50.75 -449.35 21.97 -449.35 .14 -437.15 .14 -417.54 21.97 -405.35 50.75 -405.35 72.58 -417.54"/><text x="36.36" y="-423.65" font-family="Times-Roman" font-size="14" text-anchor="middle">GCE</text></g><g id="edge30" class="edge"><title>Boskos-&gt;GCE</title><path fill="none" stroke="#000" d="M284.22,-623.53C268.27,-612.23 248.03,-597.65 230.36,-584.22 170.74,-538.87 102.89,-483.44 65.3,-452.4"/><polygon fill="#000" stroke="#000" points="282.41 -626.53 292.6 -629.44 286.45 -620.81 282.41 -626.53"/><polygon fill="#000" stroke="#000" points="67.25 -449.46 57.31 -445.79 62.79 -454.86 67.25 -449.46"/></g><g id="edge31" class="edge"><title>Boskos-&gt;GKE</title><path fill="none" stroke="#000" d="M321.29,-619.95C331.88,-592.47 350.13,-545.41 366.36,-505.22 372.56,-489.86 379.62,-472.85 385.53,-458.75"/><polygon fill="#000" stroke="#000" points="317.95 -618.88 317.63 -629.47 324.49 -621.39 317.95 -618.88"/><polygon fill="#000" stroke="#000" points="388.77 -460.08 389.41 -449.5 382.31 -457.37 388.77 -460.08"/></g><g id="node21" class="node"><title>ProwJobs</title><polygon fill="#1e90ff" stroke="#000" points="318.86 -584.22 239.86 -584.22 239.86 -505.22 318.86 -505.22 318.86 -584.22"/><text x="279.36" y="-541.02" font-family="Times-Roman" font-size="14" text-anchor="middle">ProwJobs</text></g><g id="edge29" class="edge"><title>Boskos-&gt;ProwJobs</title><path fill="none" stroke="#000" d="M304.35,-619.55C301.73,-611.82 298.73,-602.93 295.72,-594.06"/><polygon fill="#000" stroke="#000" points="301.11 -620.9 307.63 -629.25 307.74 -618.65 301.11 -620.9"/><polygon fill="#000" stroke="#000" points="299.01 -592.85 292.49 -584.5 292.38 -595.1 299.01 -592.85"/></g><g id="node24" class="node"><title>Prometheus</title><path fill="#fafafa" stroke="#000" d="M474.86,-559.44C474.86,-561.25 452.67,-562.72 425.36,-562.72 398.05,-562.72 375.86,-561.25 375.86,-559.44 375.86,-559.44 375.86,-529.99 375.86,-529.99 375.86,-528.18 398.05,-526.72 425.36,-526.72 452.67,-526.72 474.86,-528.18 474.86,-529.99 474.86,-529.99 474.86,-559.44 474.86,-559.44"/><path fill="none" stroke="#000" d="M474.86,-559.44C474.86,-557.64 452.67,-556.17 425.36,-556.17 398.05,-556.17 375.86,-557.64 375.86,-559.44"/><text x="425.36" y="-541.02" font-family="Times-Roman" font-size="14" text-anchor="middle">Prometheus</text></g><g id="edge28" class="edge"><title>Boskos-&gt;Prometheus</title><path fill="none" stroke="#000" d="M329.76,-629.35C339.2,-621.74 351.02,-612.08 361.36,-603.22 373.99,-592.4 387.73,-580.12 399.24,-569.69"/><polygon fill="#000" stroke="#000" points="401.76 -572.13 406.8 -562.81 397.05 -566.95 401.76 -572.13"/></g><g id="node13" class="node"><title>Greenhouse</title><polygon fill="#add8e6" stroke="#000" points="251.54 -432.91 171.36 -445.35 91.19 -432.91 91.26 -412.78 251.46 -412.78 251.54 -432.91"/><text x="171.36" y="-423.65" font-family="Times-Roman" font-size="14" text-anchor="middle">Greenhouse</text></g><g id="node14" class="node"><title>legend_cloud</title><ellipse cx="1031.36" cy="-291" fill="none" stroke="#000" rx="77.56" ry="37.45"/><text x="1031.36" y="-302.3" font-family="Times-Roman" font-size="14" text-anchor="middle">Cloud</text><text x="1031.36" y="-287.3" font-family="Times-Roman" font-size="14" text-anchor="middle">or</text><text x="1031.36" y="-272.3" font-family="Times-Roman" font-size="14" text-anchor="middle">Cloud service</text></g><g id="node17" class="node"><title>AWS</title><polygon fill="gray" stroke="#000" points="340.92 -419.89 340.92 -434.8 321.26 -445.35 293.46 -445.35 273.8 -434.8 273.8 -419.89 293.46 -409.35 321.26 -409.35 340.92 -419.89"/><polygon fill="none" stroke="#000" points="344.9 -417.49 344.9 -437.2 322.26 -449.35 292.47 -449.35 269.82 -437.2 269.82 -417.49 292.47 -405.35 322.26 -405.35 344.9 -417.49"/><text x="307.36" y="-423.65" font-family="Times-Roman" font-size="14" text-anchor="middle">AWS</text></g><g id="node18" class="node"><title>legend_prowjob</title><ellipse cx="884.36" cy="-291" fill="none" stroke="#000" rx="51.19" ry="18"/><text x="884.36" y="-287.3" font-family="Times-Roman" font-size="14" text-anchor="middle">ProwJobs</text></g><g id="node23" class="node"><title>InfluxDB</title><path fill="#fafafa" stroke="#000" d="M532.86,-105.73C532.86,-107.53 515.6,-109 494.36,-109 473.12,-109 455.86,-107.53 455.86,-105.73 455.86,-105.73 455.86,-76.27 455.86,-76.27 455.86,-74.47 473.12,-73 494.36,-73 515.6,-73 532.86,-74.47 532.86,-76.27 532.86,-76.27 532.86,-105.73 532.86,-105.73"/><path fill="none" stroke="#000" d="M532.86,-105.73C532.86,-103.92 515.6,-102.45 494.36,-102.45 473.12,-102.45 455.86,-103.92 455.86,-105.73"/><text x="494.36" y="-87.3" font-family="Times-Roman" font-size="14" text-anchor="middle">InfluxDB</text></g><g id="edge24" class="edge"><title>Metrics-&gt;InfluxDB</title><path fill="none" stroke="#000" d="M1174.4,-174.39C1058.66,-160.36 679.3,-114.4 543.37,-97.94"/><polygon fill="#000" stroke="#000" points="543.6 -94.44 533.25 -96.71 542.75 -101.39 543.6 -94.44"/></g><g id="edge35" class="edge"><title>ProwJobs-&gt;Greenhouse</title><path fill="none" stroke="#000" d="M236.03,-497.43C220.98,-481.35 204.78,-464.04 192.35,-450.77"/><polygon fill="#000" stroke="#000" points="233.71 -500.07 243.1 -504.98 238.82 -495.29 233.71 -500.07"/><polygon fill="#000" stroke="#000" points="194.9 -448.37 185.51 -443.47 189.79 -453.16 194.9 -448.37"/></g><g id="edge34" class="edge"><title>ProwJobs-&gt;GCE</title><path fill="none" stroke="#000" d="M230.34,-522.84C190.14,-505.39 131.99,-479.39 82.36,-454.22 78.59,-452.31 74.69,-450.24 70.82,-448.15"/><polygon fill="#000" stroke="#000" points="229.08 -526.11 239.64 -526.87 231.85 -519.69 229.08 -526.11"/><polygon fill="#000" stroke="#000" points="72.39 -445.01 61.94 -443.24 69 -451.14 72.39 -445.01"/></g><g id="edge33" class="edge"><title>ProwJobs-&gt;GKE</title><path fill="none" stroke="#000" d="M313.45,-497C320.61,-488.37 328.41,-479.73 336.36,-472.22 345.11,-463.95 355.5,-456.01 365.25,-449.2"/><polygon fill="#000" stroke="#000" points="310.64 -494.91 307.08 -504.89 316.08 -499.31 310.64 -494.91"/><polygon fill="#000" stroke="#000" points="367.29 -452.05 373.6 -443.53 363.36 -446.26 367.29 -452.05"/></g><g id="edge32" class="edge"><title>ProwJobs-&gt;AWS</title><path fill="none" stroke="#000" d="M291.12,-495.25C294.05,-483.2 297.11,-470.6 299.77,-459.62"/><polygon fill="#000" stroke="#000" points="287.72 -494.44 288.76 -504.98 294.52 -496.09 287.72 -494.44"/><polygon fill="#000" stroke="#000" points="303.23 -460.21 302.19 -449.67 296.43 -458.56 303.23 -460.21"/></g><g id="node22" class="node"><title>legend_stock</title><ellipse cx="745.36" cy="-291" fill="none" stroke="#000" rx="69.59" ry="18"/><text x="745.36" y="-287.3" font-family="Times-Roman" font-size="14" text-anchor="middle">Hosted stock</text></g><g id="edge26" class="edge"><title>InfluxDB-&gt;Velodrome</title><path fill="none" stroke="#000" d="M494.36,-72.81C494.36,-64.79 494.36,-55.05 494.36,-46.07"/><polygon fill="#000" stroke="#000" points="497.86 -46.03 494.36 -36.03 490.86 -46.03 497.86 -46.03"/></g><g id="edge25" class="edge"><title>Prometheus-&gt;InfluxDB</title><path fill="none" stroke="#000" d="M440.04,-526.64C456.93,-505.19 482.36,-466.55 482.36,-428.35 482.36,-428.35 482.36,-428.35 482.36,-178.5 482.36,-158.6 485.51,-136.37 488.59,-119.43"/><polygon fill="#000" stroke="#000" points="492.12 -119.62 490.56 -109.14 485.24 -118.3 492.12 -119.62"/></g><g id="edge11" class="edge"><title>Hook-&gt;ApiServer</title><path fill="none" stroke="#000" d="M797.13,-1023.83C778.11,-1015.75 757.03,-1006.16 738.36,-996.17 707.31,-979.56 673.98,-957.95 648.85,-940.8"/><polygon fill="#000" stroke="#000" points="650.54 -937.72 640.31 -934.94 646.57 -943.49 650.54 -937.72"/><text x="789.86" y="-977.47" font-family="Times-Roman" font-size="14" text-anchor="middle">create ProwJob</text></g><g id="node26" class="node"><title>Plank</title><ellipse cx="467.36" cy="-1047.38" fill="none" stroke="#000" rx="99.9" ry="26.74"/><text x="467.36" y="-1051.18" font-family="Times-Roman" font-size="14" text-anchor="middle">Plank</text><text x="467.36" y="-1036.18" font-family="Times-Roman" font-size="14" text-anchor="middle">ProwJob controller</text></g><g id="edge7" class="edge"><title>Plank-&gt;GitHub\nthrough\nghproxy</title><path fill="none" stroke="#000" d="M980.36,-950.12C982.32,-949.15 984.28,-948.17 986.24,-947.2"/><polygon fill="#000" stroke="#000" points="980.8 -953.81 988.19 -946.22 977.68 -947.55 980.8 -953.81"/><text x="923.86" y="-984.97" font-family="Times-Roman" font-size="14" text-anchor="middle">update PR status</text><text x="923.86" y="-969.97" font-family="Times-Roman" font-size="14" text-anchor="middle">comment failures</text></g><g id="edge27" class="edge"><title>Plank-&gt;Prometheus</title><path fill="none" stroke="#000" d="M425.36,-740.22C425.36,-712.57 425.36,-680.47 425.36,-643.22 425.36,-619.51 425.36,-592.56 425.36,-573.01"/><polygon fill="#000" stroke="#000" points="428.86 -572.98 425.36 -562.98 421.86 -572.98 428.86 -572.98"/></g><g id="edge8" class="edge"><title>Plank-&gt;ApiServer</title><path fill="none" stroke="#000" d="M493.55,-1021.45C516.65,-999.47 550.41,-967.33 575.35,-943.59"/><polygon fill="#000" stroke="#000" points="577.96 -945.94 582.79 -936.51 573.13 -940.87 577.96 -945.94"/></g><g id="node27" class="node"><title>Sinker</title><ellipse cx="608.36" cy="-785.69" fill="none" stroke="#000" rx="82.96" ry="37.45"/><text x="608.36" y="-796.99" font-family="Times-Roman" font-size="14" text-anchor="middle">Sinker</text><text x="608.36" y="-781.99" font-family="Times-Roman" font-size="14" text-anchor="middle">deletes old</text><text x="608.36" y="-766.99" font-family="Times-Roman" font-size="14" text-anchor="middle">pods/ProwJobs</text></g><g id="node28" class="node"><title>Horologium</title><ellipse cx="840.36" cy="-785.69" fill="none" stroke="#000" rx="131.54" ry="26.74"/><text x="840.36" y="-789.49" font-family="Times-Roman" font-size="14" text-anchor="middle">Horologium</text><text x="840.36" y="-774.49" font-family="Times-Roman" font-size="14" text-anchor="middle">create periodic ProwJobs</text></g><g id="node29" class="node"><title>Job</title><ellipse cx="480.36" cy="-785.69" fill="none" stroke="#000" rx="27" ry="18"/><text x="480.36" y="-781.99" font-family="Times-Roman" font-size="14" text-anchor="middle">Job</text></g><g id="edge6" class="edge"><title>Job-&gt;GCS</title><path fill="none" stroke="#000" d="M496.94,-760.97C502.61,-753.81 509.31,-746.25 516.36,-740.22 557.38,-705.12 613.19,-675.99 647.98,-659.59"/><polygon fill="#000" stroke="#000" points="494.05 -758.99 490.81 -769.08 499.63 -763.21 494.05 -758.99"/><polygon fill="#000" stroke="#000" points="649.6 -662.7 657.2 -655.31 646.66 -656.35 649.6 -662.7"/><text x="690.86" y="-719.02" font-family="Times-Roman" font-size="14" text-anchor="middle">publish</text><text x="690.86" y="-704.02" font-family="Times-Roman" font-size="14" text-anchor="middle">started.json, finished.json,</text><text x="690.86" y="-689.02" font-family="Times-Roman" font-size="14" text-anchor="middle">build-log.txt, artifacts/</text></g><g id="edge13" class="edge"><title>ApiServer-&gt;Sinker</title><path fill="none" stroke="#000" d="M608.36,-874.23C608.36,-858.23 608.36,-839.4 608.36,-823.32"/><polygon fill="#000" stroke="#000" points="604.86 -874.29 608.36 -884.29 611.86 -874.29 604.86 -874.29"/></g><g id="edge14" class="edge"><title>ApiServer-&gt;Horologium</title><path fill="none" stroke="#000" d="M658.47,-883.5C698.98,-861.94 755.52,-831.85 794.77,-810.96"/><polygon fill="#000" stroke="#000" points="656.75 -880.45 649.57 -888.24 660.04 -886.63 656.75 -880.45"/></g><g id="edge12" class="edge"><title>ApiServer-&gt;Job</title><path fill="none" stroke="#000" d="M574.35,-884.61C563.47,-875.96 551.61,-865.99 541.36,-856.17 526.15,-841.59 510.51,-823.7 498.87,-809.73"/><polygon fill="#000" stroke="#000" points="501.57 -807.5 492.51 -802 496.16 -811.95 501.57 -807.5"/><text x="572.86" y="-844.97" font-family="Times-Roman" font-size="14" text-anchor="middle">start Pod</text></g><g id="edge17" class="edge"><title>Kettle-&gt;BigQuery</title><path fill="none" stroke="#000" d="M1298.94,-400.44C1309.79,-383.5 1324.3,-360.83 1337.25,-340.6"/><polygon fill="#000" stroke="#000" points="1340.25 -342.41 1342.69 -332.1 1334.35 -338.64 1340.25 -342.41"/><text x="1334.86" y="-371.28" font-family="Times-Roman" font-size="14" text-anchor="middle">write</text></g><g id="node32" class="node"><title>Splice</title><ellipse cx="312.36" cy="-1047.38" fill="none" stroke="#000" rx="37.89" ry="18"/><text x="312.36" y="-1043.68" font-family="Times-Roman" font-size="14" text-anchor="middle">Splice</text></g><g id="edge9" class="edge"><title>Splice-&gt;ApiServer</title><path fill="none" stroke="#000" d="M331.44,-1031.59C339.48,-1025.73 349.12,-1019.21 358.36,-1014.17 418.68,-981.29 491.87,-952.62 543.42,-934.13"/><polygon fill="#000" stroke="#000" points="544.86 -937.33 553.11 -930.68 542.52 -930.73 544.86 -937.33"/></g></g></svg>